<svg version="1.2" xmlns="http://www.w3.org/2000/svg" viewBox="0 0 540 310" width="40" height="23">
	<title>noun-arrow-down-2424963-svg</title>
	<style>
		.s0 { fill: #000000 } 
	</style>
	<g id="Layer">
		<path id="Layer" class="s0" d="m35.9 4.7c8.2 0 16.6 3.2 22.8 9.5l211.6 211.5 211.1-211.5c12.5-12.5 33.2-12.5 45.7 0 12.5 12.5 12.3 33.6-0.7 45.9l-233.7 233.7c-6.5 6.5-14.6 9.5-22.8 9.5-8.3 0-16.8-3.4-22.9-9.5l-234-234c-12.5-12.5-12.5-33.1 0-45.6 6.3-6.3 14.6-9.5 22.9-9.5z"/>
		<g id="k">
			<path id="Layer" class="s0" d="m19.3 563.5q-2.3 1.2-4.7 1.8-2.5 0.6-5.1 0.6-8 0-12.7-4.5-4.6-4.4-4.6-12.1 0-7.6 4.6-12.1 4.7-4.4 12.7-4.4 2.6 0 5.1 0.6 2.4 0.6 4.7 1.8v6.5q-2.3-1.5-4.5-2.2-2.2-0.8-4.7-0.8-4.4 0-6.9 2.9-2.5 2.8-2.5 7.7 0 5 2.5 7.8 2.5 2.8 6.9 2.8 2.5 0 4.7-0.7 2.2-0.7 4.5-2.3z"/>
		</g>
		<g id="h">
			<path id="Layer" class="s0" d="m43.6 547.8q-1.1-0.4-2.1-0.6-0.9-0.3-1.9-0.3-3 0-4.6 1.9-1.6 1.9-1.6 5.4v11.1h-7.6v-24h7.6v4q1.5-2.4 3.4-3.5 1.9-1 4.6-1 0.4 0 0.8 0 0.5 0 1.3 0.1z"/>
		</g>
		<g id="a">
			<path id="Layer" fill-rule="evenodd" class="s0" d="m71.2 553.2v2.2h-17.8q0.2 2.7 1.9 4 1.7 1.4 4.7 1.4 2.4 0 4.9-0.7 2.5-0.7 5.2-2.2v5.9q-2.7 1-5.4 1.5-2.7 0.6-5.4 0.6-6.5 0-10.1-3.3-3.6-3.3-3.6-9.3 0-5.8 3.5-9.2 3.5-3.3 9.7-3.3 5.7 0 9.1 3.4 3.3 3.3 3.3 9zm-7.8-2.5q0-2.2-1.3-3.5-1.3-1.4-3.3-1.4-2.2 0-3.6 1.3-1.4 1.2-1.8 3.6z"/>
		</g>
		<g id="d">
			<path id="Layer" fill-rule="evenodd" class="s0" d="m99.4 551.6v13.6h-7.7v-3.5q-1.5 2.2-3.4 3.2-2 1-4.7 1-3.7 0-6.1-2.2-2.3-2.2-2.3-5.6 0-4.2 2.9-6.2 2.9-2 9.1-2h4.5v-0.6q0-1.8-1.4-2.6-1.4-0.9-4.5-0.9-2.4 0-4.5 0.5-2.1 0.5-4 1.5v-5.8q2.5-0.6 5-0.9 2.4-0.3 4.9-0.4 6.5 0.1 9.4 2.6 2.8 2.6 2.8 8.3zm-11.7 2.9q-2.3 0-3.5 0.8-1.3 0.8-1.3 2.4 0 1.4 1 2.3 1 0.8 2.7 0.8 2.2 0 3.6-1.6 1.5-1.5 1.5-3.8v-0.9z"/>
		</g>
		<g id="c">
			<path id="Layer" class="s0" d="m114.9 534.5v6.8h7.9v5.5h-7.9v10.1q0 1.7 0.7 2.3 0.6 0.6 2.6 0.6h3.9v5.5h-6.5q-4.6 0-6.5-1.9-1.8-1.9-1.8-6.5v-10.1h-3.8v-5.5h3.8v-6.8z"/>
		</g>
		<g id="a">
			<path id="Layer" fill-rule="evenodd" class="s0" d="m151.4 553.2v2.2h-17.9q0.2 2.7 1.9 4 1.7 1.4 4.7 1.4 2.4 0 4.9-0.7 2.5-0.7 5.2-2.2v5.9q-2.7 1-5.4 1.5-2.7 0.6-5.4 0.6-6.5 0-10.1-3.3-3.6-3.3-3.6-9.3 0-5.8 3.5-9.2 3.5-3.3 9.7-3.3 5.7 0 9.1 3.4 3.4 3.3 3.4 9zm-7.9-2.5q0-2.2-1.3-3.5-1.3-1.4-3.3-1.4-2.2 0-3.6 1.3-1.4 1.2-1.7 3.6z"/>
		</g>
		<g id="g">
			<path id="Layer" fill-rule="evenodd" class="s0" d="m173.4 544.8v-12.8h7.7v33.3h-7.7v-3.5q-1.6 2.1-3.5 3.1-1.9 1-4.4 1-4.4 0-7.2-3.5-2.9-3.6-2.9-9.1 0-5.5 2.9-9 2.8-3.5 7.2-3.5 2.5 0 4.4 1 1.9 0.9 3.5 3zm-5 15.5q2.4 0 3.7-1.8 1.3-1.8 1.3-5.2 0-3.4-1.3-5.2-1.3-1.8-3.7-1.8-2.5 0-3.8 1.8-1.2 1.8-1.2 5.2 0 3.4 1.2 5.2 1.3 1.8 3.8 1.8z"/>
		</g>
		<g id="b">
			<path id="Layer" fill-rule="evenodd" class="s0" d="m211.3 544.8q1.6-2.1 3.5-3 2-1 4.5-1 4.4 0 7.2 3.5 2.9 3.5 2.9 9 0 5.5-2.9 9.1-2.8 3.5-7.2 3.5-2.5 0-4.5-1-1.9-1-3.5-3.1v3.5h-7.6v-33.3h7.6zm5.1 15.5q2.5 0 3.8-1.8 1.3-1.8 1.3-5.2 0-3.4-1.3-5.2-1.3-1.8-3.8-1.8-2.4 0-3.7 1.8-1.4 1.8-1.4 5.2 0 3.4 1.4 5.2 1.3 1.8 3.7 1.8z"/>
		</g>
		<g id="f">
			<path id="Layer" class="s0" d="m231.9 541.3h7.6l6.4 16.3 5.5-16.3h7.7l-10.1 26.2q-1.5 4-3.5 5.6-2.1 1.6-5.4 1.6h-4.4v-5h2.4q1.9 0 2.8-0.7 0.9-0.6 1.4-2.2l0.2-0.6z"/>
		</g>
		<g id="e">
			<path id="Layer" class="s0" d="m275.7 541.3h7.7l5.9 16.6 6-16.6h7.7l-9.5 24h-8.4z"/>
		</g>
		<g id="a">
			<path id="Layer" fill-rule="evenodd" class="s0" d="m331.2 553.2v2.2h-17.9q0.2 2.7 1.9 4 1.7 1.4 4.7 1.4 2.4 0 4.9-0.7 2.5-0.7 5.2-2.2v5.9q-2.7 1-5.4 1.5-2.7 0.6-5.4 0.6-6.5 0-10.1-3.3-3.6-3.3-3.6-9.3 0-5.8 3.5-9.2 3.5-3.3 9.7-3.3 5.7 0 9.1 3.4 3.4 3.3 3.4 9zm-7.9-2.5q0-2.2-1.3-3.5-1.2-1.4-3.3-1.4-2.2 0-3.6 1.3-1.4 1.2-1.7 3.6z"/>
		</g>
		<g id="j">
			<path id="Layer" class="s0" d="m356.3 542.1v6.2q-1.6-1.1-3.2-1.6-1.5-0.5-3.2-0.5-3.2 0-5 1.9-1.8 1.9-1.8 5.2 0 3.4 1.8 5.2 1.8 1.9 5 1.9 1.8 0 3.4-0.5 1.6-0.6 3-1.6v6.2q-1.8 0.7-3.7 1-1.8 0.4-3.7 0.4-6.4 0-10.1-3.4-3.7-3.3-3.7-9.2 0-5.9 3.7-9.2 3.7-3.4 10.1-3.4 1.9 0 3.7 0.4 1.9 0.3 3.7 1z"/>
		</g>
		<g id="c">
			<path id="Layer" class="s0" d="m371.2 534.5v6.8h7.9v5.5h-7.9v10.1q0 1.7 0.7 2.3 0.6 0.6 2.6 0.6h4v5.5h-6.6q-4.5 0-6.4-1.9-1.9-1.9-1.9-6.5v-10.1h-3.8v-5.5h3.8v-6.8z"/>
		</g>
		<g id="i">
			<path id="Layer" class="s0" d="m383.8 532h7.6v33.3h-7.6z"/>
		</g>
		<g id="d">
			<path id="Layer" fill-rule="evenodd" class="s0" d="m421.2 551.6v13.6h-7.7v-3.5q-1.6 2.2-3.5 3.2-1.9 1-4.7 1-3.7 0-6-2.2-2.3-2.2-2.3-5.6 0-4.2 2.9-6.2 2.9-2 9.1-2h4.5v-0.6q0-1.8-1.4-2.6-1.5-0.9-4.5-0.9-2.5 0-4.6 0.5-2.1 0.5-3.9 1.5v-5.8q2.4-0.6 4.9-0.9 2.5-0.3 5-0.4 6.5 0.1 9.3 2.6 2.9 2.6 2.9 8.3zm-11.7 2.9q-2.4 0-3.6 0.8-1.2 0.8-1.2 2.4 0 1.4 1 2.3 0.9 0.8 2.7 0.8 2.1 0 3.6-1.6 1.5-1.5 1.5-3.8v-0.9z"/>
		</g>
		<g id="b">
			<path id="Layer" fill-rule="evenodd" class="s0" d="m436 544.8q1.5-2.1 3.5-3 1.9-1 4.4-1 4.4 0 7.3 3.5 2.8 3.5 2.8 9 0 5.5-2.8 9.1-2.9 3.5-7.3 3.5-2.5 0-4.4-1-2-1-3.5-3.1v3.5h-7.7v-33.3h7.7zm5 15.5q2.5 0 3.8-1.8 1.3-1.8 1.3-5.2 0-3.4-1.3-5.2-1.3-1.8-3.8-1.8-2.4 0-3.7 1.8-1.3 1.8-1.3 5.2 0 3.4 1.3 5.2 1.3 1.8 3.7 1.8z"/>
		</g>
	</g>
</svg>