<svg width="19" height="20" viewBox="0 0 19 20" fill="none" xmlns="http://www.w3.org/2000/svg">
<g clip-path="url(#clip0_11_36)">
<path fill-rule="evenodd" clip-rule="evenodd" d="M18.5402 1.71007C18.9092 2.46191 18.8266 3.35134 18.3266 4.01965L12.4131 11.941C12.2723 12.1278 12.1946 12.3636 12.1946 12.6044V17.8722C12.1946 18.1179 12.0344 18.3341 11.8062 18.4029L7.45128 19.7297C7.40273 19.7445 7.34447 19.7543 7.29592 19.7543C7.1794 19.7543 7.06773 19.7199 6.97063 19.6462C6.83469 19.543 6.75215 19.3759 6.75215 19.2039V12.6093C6.75215 12.3685 6.67447 12.1327 6.52882 11.941L0.615385 4.02456C0.115316 3.35134 0.0376357 2.46682 0.406618 1.71498C0.775601 0.958225 1.52328 0.491394 2.35349 0.491394H16.5982C17.4235 0.491394 18.1712 0.958224 18.5402 1.71007ZM17.574 2.20147C17.3847 1.81818 17.0157 1.59213 16.5982 1.59213H2.35834C1.93596 1.59213 1.57183 1.81818 1.38248 2.20147C1.19313 2.58476 1.23197 3.01719 1.48929 3.35626L7.40273 11.2776C7.68432 11.656 7.83968 12.1278 7.83968 12.6044V18.4619L11.112 17.4644V12.6044C11.112 12.1278 11.2673 11.656 11.5489 11.2776L17.4624 3.36117C17.7197 3.01719 17.7585 2.58476 17.574 2.20147Z" fill="black"/>
</g>
<defs>
<clipPath id="clip0_11_36">
<rect width="19" height="20" fill="white"/>
</clipPath>
</defs>
</svg>
